<?xml version="1.0" standalone="no"?>
<!DOCTYPE svg PUBLIC "-//W3C//DTD SVG 1.1//EN" "http://www.w3.org/Graphics/SVG/1.1/DTD/svg11.dtd" >
<svg xmlns="http://www.w3.org/2000/svg">
  <metadata>Created by iconfont</metadata>
  <defs>
  <font id="dv-iconfont" horiz-adv-x="1024">
    <font-face
      font-family="dv-iconfont"
      font-weight="400"
      font-stretch="normal"
      units-per-em="1024"
      ascent="896"
      descent="-128"
    />
      <missing-glyph />
      
      <glyph glyph-name="tiaosepan" unicode="&#59268;" d="M597.0432-12.4416c-5.2224-24.8832-28.416-42.3936-85.0432-42.3936A438.8864 438.8864 0 1 0 950.8352 384c0-15.0528 1.792-13.1584 0-13.1584a69.5808 69.5808 0 0 0-19.0464 2.3552l-9.6256 2.2528c-24.6272 5.8368-47.0016 8.5504-80.9984 8.5504a256 256 0 0 1-256-256c0-32.768 2.56-58.1632 7.68-88.2688 0.512-3.072 2.9184-16.4864 3.328-19.712 0.9728-5.632 1.4848-9.728 1.8432-13.1584 0.7168-6.4 0.4096-12.9024-0.9728-19.2v-0.1024z m71.6288-14.848c10.2912 49.7664-10.3936 72.6528-10.3936 155.2896a182.8352 182.8352 0 0 0 182.8864 182.8352c66.56 0 68.1984-13.1584 109.6704-13.1584 41.472 0 73.1648 29.7984 73.1648 86.3232a512 512 0 1 1-512-512c101.7344 0 146.2784 50.9952 156.672 100.7104z m62.7712 557.568a73.1648 73.1648 0 1 1 0 146.2784 73.1648 73.1648 0 0 1 0-146.2784zM512 603.4432a73.1648 73.1648 0 1 1 0 146.2784 73.1648 73.1648 0 0 1 0-146.2784zM292.5568 493.7216a73.1648 73.1648 0 1 1 0 146.2784 73.1648 73.1648 0 0 1 0-146.2784z m-36.5568-256A73.1648 73.1648 0 1 1 256 384a73.1648 73.1648 0 0 1 0-146.2784z"  horiz-adv-x="1024" />
      
      <glyph glyph-name="seqia" unicode="&#58896;" d="M436.040392-127.987646H58.274615a40.768757 40.768757 0 0 0-40.768758 40.768758V855.231243A40.768757 40.768757 0 0 0 58.274615 896h377.765777a40.768757 40.768757 0 0 0 40.768758-40.768757v-942.450131a40.768757 40.768757 0 0 0-40.768758-40.768758z m-356.776044 61.770845h335.773957V834.229155H79.276702zM247.157504-5.619603a109.952103 109.952103 0 1 0 109.952103 109.952104 110.063291 110.063291 0 0 0-109.952103-109.952104z m0 158.133363a48.181259 48.181259 0 1 1 48.181258-48.181259 48.181259 48.181259 0 0 1-48.181258 48.168905zM975.596366-127.987646H447.060311a30.885422 30.885422 0 0 0 0 61.770845h497.650633V269.95249h-479.588838a30.885422 30.885422 0 1 0 0 61.770844h510.47426a30.885422 30.885422 0 0 0 30.885422-30.885422v-397.940136a30.885422 30.885422 0 0 0-30.885422-30.885422zM722.014695 288.656701A30.885422 30.885422 0 0 0 700.098399 341.297815l177.072303 178.357137-231.257688 231.270042-167.90551-169.177989a30.889129 30.889129 0 0 0-43.844945 43.523737L623.897885 816.40209a30.885422 30.885422 0 0 0 21.866879 9.12973 30.885422 30.885422 0 0 0 21.891587-9.018543l274.954384-274.942029a30.885422 30.885422 0 0 0 0.074125-43.597863L743.93099 297.835849a30.786589 30.786589 0 0 0-21.916295-9.179148z"  horiz-adv-x="1024" />
      
      <glyph glyph-name="wutianchongyanse" unicode="&#59157;" d="M841.6 841.6a128 128 0 0 0 128-128v-659.2a128 128 0 0 0-128-128H182.4a128 128 0 0 0-128 128V713.6a128 128 0 0 0 128 128h659.2z m0-64H182.4a64 64 0 0 1-63.552-56.512l-0.448-7.488v-659.2a64 64 0 0 1 56.512-63.552l7.488-0.448h659.2a64 64 0 0 1 63.552 56.512l0.448 7.488V713.6a64 64 0 0 1-56.512 63.552l-7.488 0.448zM896.439815 822.745616m27.1529-27.152901l0 0q27.1529-27.1529 0-54.305801l-768.924884-768.924884q-27.1529-27.1529-54.305801 0l0 0q-27.1529 27.1529 0 54.305801l768.924884 768.924884q27.1529 27.1529 54.305801 0Z"  horiz-adv-x="1024" />
      
      <glyph glyph-name="hengxiangjunyunfenbu" unicode="&#59023;" d="M652.354988-58.890535h-280.739038a69.341961 69.341961 0 0 0-69.254775 69.254775V757.403264a69.341961 69.341961 0 0 0 69.254775 69.254775h280.739038a69.312899 69.312899 0 0 0 69.254775-69.254775v-747.039024a69.341961 69.341961 0 0 0-69.254775-69.254775z m-271.52638 78.467433h262.342784V748.190606h-262.342784zM945.532567-128a39.233716 39.233716 0 0 0-39.204654 39.233716V856.766284A39.233716 39.233716 0 0 0 945.532567 896a39.262778 39.262778 0 0 0 39.233717-39.233716v-945.532568a39.262778 39.262778 0 0 0-39.233717-39.233716zM78.438371-128A39.233716 39.233716 0 0 0 39.233716-88.766284V856.766284A39.233716 39.233716 0 0 0 78.438371 896a39.262778 39.262778 0 0 0 39.233716-39.233716v-945.532568a39.262778 39.262778 0 0 0-39.233716-39.233716z"  horiz-adv-x="1024" />
      
      <glyph glyph-name="zongxiangjunyunfenbu" unicode="&#59027;" d="M958.94566 156.955004h-808.851733a75.094173 75.094173 0 0 0-74.999754 74.999754v304.090484a75.031227 75.031227 0 0 0 74.999754 74.968281h808.851733a75.0627 75.0627 0 0 0 74.999754-74.968281v-304.090484a75.094173 75.094173 0 0 0-74.999754-74.999754z m-799.03221 84.976641h789.086796v284.105237H159.91345zM1066.425375-128H42.488321A42.488321 42.488321 0 0 0 0-85.511679a42.488321 42.488321 0 0 0 42.488321 42.48832h1023.937054a42.488321 42.488321 0 0 0 42.488321-42.48832 42.488321 42.488321 0 0 0-42.488321-42.488321zM1066.425375 811.023359H42.488321A42.488321 42.488321 0 0 0 0 853.511679 42.488321 42.488321 0 0 0 42.488321 896h1023.937054a42.488321 42.488321 0 0 0 42.488321-42.488321 42.488321 42.488321 0 0 0-42.488321-42.48832z"  horiz-adv-x="1108" />
      
      <glyph glyph-name="shandian" unicode="&#58907;" d="M412.352 896h358.144c10.048 0 16-15.552 10.368-27.072l-128.64-263.68h225.216c10.496 0 16.32-16.768 9.792-28.16L487.36-121.344c-8.192-14.336-24.704-3.584-22.016 14.336L530.432 327.68l-347.584-6.4c-9.728-0.192-15.872 14.528-10.944 26.176L401.536 887.488C403.84 892.736 407.936 896 412.352 896z"  horiz-adv-x="1024" />
      
      <glyph glyph-name="bim_donghua" unicode="&#59119;" d="M480 800l128.576-273.92L896 482.24l-208-213.12 49.088-301.056L480 110.08 222.912-32l49.088 300.992L64 482.176l287.424 43.968L480 800z m448-672v-64H768v64h160z m-448 521.408L394.88 468.032l-198.144-30.272 143.616-147.2-33.152-202.752 172.8 95.424 172.736-95.424-33.088 202.816 143.552 147.136-198.08 30.272L480 649.408zM928 320v-64H768V320h160z m0 320v-64H768V640h160z"  horiz-adv-x="1024" />
      
      <glyph glyph-name="a-5" unicode="&#59659;" d="M970.353092 842.51624c-71.334434 71.334434-188.131771 71.334434-259.568599 0L440.874108 572.435198l-41.708458 41.708459a43.278499 43.278499 0 0 1-60.992648 0 43.278499 43.278499 0 0 1 0-60.958517l57.340598-57.340597-307.07938-307.181774a161.099775 161.099775 0 0 1-40.445601-160.17823l-25.598481-25.598481a76.897837 76.897837 0 0 1 0-108.469297 76.897837 76.897837 0 0 1 108.503429 0l25.598481 25.598481a161.577613 161.577613 0 0 1 160.144098 40.4456l307.07938 307.045249 57.340598-57.340598a43.278499 43.278499 0 0 1 60.958516 0 43.278499 43.278499 0 0 1 0 61.026779l-41.708458 41.674327 270.04691 270.046911c71.436828 71.334434 71.436828 188.131771 0 259.568599z m-424.388686-577.843048H239.260471l193.797568 193.763437 153.351967-153.317837-40.4456-40.4456z"  horiz-adv-x="1024" />
      
      <glyph glyph-name="suozi" unicode="&#59193;" d="M913.54666667 457.92H317.86666667c-31.68 0-57.12-25.44-57.12-57.12v-418.08c0-31.68 25.44-57.12 57.12-57.12h595.2c31.68 0 57.12 25.44 57.12 57.12V400.8c0.48 31.68-24.96 57.12-56.64 57.12z m-265.44-276.96v-91.2c0-4.32-3.36-7.68-7.68-7.68h-49.44c-4.32 0-7.68 3.36-7.68 7.68v91.2c-23.04 12-39.36 35.52-39.36 63.36 0 39.36 32.16 71.52 71.52 71.52s71.52-32.16 71.52-71.52c0-27.84-15.84-51.84-38.88-63.36z m0 0M99.94666667 607.2c0 78.72 64.32 143.04 143.04 143.04s143.04-64.32 143.04-143.04v-148.8h88.8V611.04C474.82666667 738.72 370.66666667 842.88 242.50666667 842.88 114.82666667 842.88 10.66666667 738.72 10.66666667 611.04v-152.64h89.28v148.8z m0 0"  horiz-adv-x="1024" />
      
      <glyph glyph-name="suo" unicode="&#59046;" d="M788.36314999 469.70931667L235.62634999 469.70931667c-47.7414 0-86.43914999-38.61795001-86.43914999-86.26800002l0-365.94494999c0-47.6511 38.69774999-86.268 86.43914999-86.268l552.73785001 0c47.74245001 0 86.4507 38.6169 86.4507 86.268L874.8149 383.44131665C874.81384999 431.09136666 836.1056 469.70931667 788.36314999 469.70931667zM548.3993 202.94421666999995l0-96.05295001c0-20.097-16.28654999-36.40665001-36.40455001-36.40665001-20.10645001 0-36.40455001 16.30964999-36.40454999 36.40665001l0 96.05294999c-21.73814999 12.5916-36.4056 36.06225001-36.4056 63.00105001 0 40.215 32.59515001 72.8112 72.81014999 72.8112s72.8217-32.5962 72.8217-72.8112C584.81645001 239.00646666 570.16054999 215.53581665000002 548.3993 202.94421666999995zM511.99474999 815.60346666c-140.74934999 0-254.8581-112.50015001-254.8581-260.3097l2e-8-113.04824999 509.7288-24.2697L766.86545001 555.2937666600001C766.86545001 703.10331667 652.7567 815.60346666 511.99474999 815.60346666zM329.99194999 448.63266666L329.99194999 557.82531667c0 100.5018 81.4884 182.0028 182.00175001 182.0028 100.5249 0 182.0028-81.501 182.0028-182.0028l0-111.7473L329.99194999 448.63266666z"  horiz-adv-x="1024" />
      
      <glyph glyph-name="auxiliaryLine" unicode="&#59087;" d="M960 191.488v-118.208h-137.28V-64h-118.208v255.488H960z m-640.512 0V-64H201.28v13.376l-0.128 123.904H64v118.208h255.488z m320.256 0v-118.208H384.256v118.208h255.488zM319.488 511.744v-255.488H201.28V511.744h118.208z m503.232 0v-255.488h-118.208V511.744h118.208zM319.488 832v-255.488H64V694.72h13.376l123.776 0.128V832h118.336z m320.256-137.28v-118.208H384.256V694.72h255.488zM822.784 832v-137.152H960v-118.336h-255.488V832h118.208z"  horiz-adv-x="1024" />
      
      <glyph glyph-name="auxiliaryTool" unicode="&#59106;" d="M294.2464 769.536c130.1504 53.4016 288.4096 16.896 384.3584-99.2256 14.6432-17.7664 26.88-36.5056 37.2224-55.808l-91.2896-12.544a68.608 68.608 0 0 1-55.3984-43.52L506.88 394.0864c-8.96-23.5008-4.1472-50.2784 12.288-70.1952l115.6096-139.8784c16.5888-20.0192 42.3424-30.1568 67.7376-26.624l99.6352 13.6192 38.0416-45.9776c30.208-36.5056 25.344-89.8048-10.8544-118.272l-18.6368-14.6432c-36.1984-28.4672-90.624-21.9136-120.832 14.6944l-137.5232 166.4c-128.1024-47.5136-280.832-9.728-374.3744 103.424C81.92 392.8576 79.0016 551.424 160.1536 664.064L262.144 540.5696c28.5696-34.5088 79.872-40.7552 114.0736-13.824l9.728 7.5776c34.2016 26.88 38.912 77.1584 10.2912 111.6672z m473.1392-206.336a76.3904 76.3904 0 0 0 68.2496-26.7776l69.2224-83.8144c16.4864-19.8144 21.1456-46.592 12.3904-70.7072l-32.256-89.088c-9.4208-26.2656-33.28-45.056-61.5936-48.4864l-95.9488-11.8784a76.3904 76.3904 0 0 0-68.2496 26.7776l-69.2224 83.7632a71.9872 71.9872 0 0 0-12.4416 70.7584l32.256 89.088c9.472 26.2656 33.3312 45.0048 61.5936 48.4352zM764.416 493.056l-5.5808-0.3072-55.0912-6.8608a43.008 43.008 0 0 1-35.3792-27.8016l-18.5344-51.0464a41.3696 41.3696 0 0 1 7.168-40.5504l39.7312-48.128a43.7248 43.7248 0 0 1 39.1168-15.36l55.1424 6.8096a43.008 43.008 0 0 1 35.3792 27.8016l18.4832 51.0464a41.6256 41.6256 0 0 1-7.1168 40.6016l-39.7312 48.128a43.7248 43.7248 0 0 1-39.168 15.36z"  horiz-adv-x="1024" />
      
      <glyph glyph-name="equipment-pad" unicode="&#59107;" d="M0 40.0384C0 3.84 29.5936-25.6 65.9456-25.6h892.1088c36.352 0 65.9456 29.44 65.9456 65.6384V727.9616C1024 764.16 994.4064 793.6 958.0544 793.6H65.9456C29.5936 793.6 0 764.16 0 727.9616v-687.9232z m948.5312 315.7504a43.7248 43.7248 0 0 0-43.8272 43.6224c0 24.064 19.6096 43.6224 43.8272 43.6224 24.1664 0 43.776-19.5584 43.776-43.6224s-19.6096-43.6224-43.776-43.6224z m-120.064-315.7504H66.048L65.9456 727.9616h762.5216v-687.9232z"  horiz-adv-x="1024" />
      
      <glyph glyph-name="controlGroup" unicode="&#59088;" d="M804.5568 735.1296V793.6h-234.0864v-58.4704H102.4V617.984h468.0704V559.616h234.0864V617.984H921.6V735.1296h-117.0432z m-58.4704-116.992h-117.0432V735.1296h117.0432v-116.992z m58.4704-409.7024h-234.0864v-58.4704H102.4v-117.0944h468.0704V-25.6h234.0864v58.4704H921.6v116.992h-117.0432v58.5728z m-58.4704-175.5648h-117.0432v116.992h117.0432v-116.992zM453.5296 501.0944H219.4432v-58.5216H102.4v-117.0432h117.0432v-58.5216h234.0864v58.5216H921.6V442.4704H453.5296V501.0944z"  horiz-adv-x="1024" />
      
      <glyph glyph-name="equipment-large" unicode="&#59105;" d="M980.480512 792.6784c23.04 5.2736 43.52-13.1072 43.52-39.424v-612.864a39.424 39.424 0 0 0-43.52-39.4752c-84.48 13.1584-268.8 39.424-417.28 44.6976v-52.5824c107.52-2.6624 181.76-7.8848 222.72-10.5472 17.92-2.6112 33.28-18.432 33.28-39.424v-26.3168a39.424 39.424 0 0 0-43.52-39.424c-48.64 2.56-138.24 7.8336-263.68 7.8336s-215.04-5.2224-263.68-10.496a39.424 39.424 0 0 0-43.52 39.424v26.3168c0 21.0432 12.8 36.864 33.28 39.424 40.96 5.3248 115.2 10.5472 222.72 10.5472v52.6336c-148.48-5.2736-332.8-31.5904-417.28-47.36a39.424 39.424 0 0 0-43.52 39.424V753.3056c0 26.3168 20.48 44.6976 43.52 39.424C138.240512 779.5712 358.400512 748.032 512.000512 748.032s373.76 31.5904 468.48 44.6976zM436.224512 529.7152a33.5872 33.5872 0 0 1-43.2128 0L211.558912 344.064a36.8128 36.8128 0 0 1 0-42.496 34.816 34.816 0 0 1 49.3056-8.0384l153.7024 157.4912 153.6512-157.4912c12.8-10.496 31.1296-10.496 43.9296 0l181.3504 185.7536a36.9664 36.9664 0 0 1 0.1536 42.4448 34.816 34.816 0 0 1-49.3568 8.0384l-154.0096-157.696z"  horiz-adv-x="1024" />
      
      <glyph glyph-name="fullScreen" unicode="&#59102;" d="M267.072 55.488h95.616V-64H64v298.688h119.488v-95.616l179.2 179.2 83.584-83.584-179.2-179.2z m483.84 0l-179.2 179.2 83.648 83.584 185.152-185.152v101.568H960V-64h-298.688v119.488h89.6zM267.072 712.512l179.2-179.2-83.584-83.584-179.2 179.2v-95.616H64V832h298.688v-119.488H267.072z m483.84 0h-89.6V832H960v-298.688h-119.488V634.88L655.36 449.728 571.712 533.312l179.2 179.2z"  horiz-adv-x="1024" />
      
      <glyph glyph-name="largeScreen" unicode="&#59104;" d="M980.480512 792.6784c23.04 5.2736 43.52-13.1072 43.52-39.424v-612.864a39.424 39.424 0 0 0-43.52-39.4752c-84.48 13.1584-268.8 39.424-417.28 44.6976v-52.5824c107.52-2.6624 181.76-7.8848 222.72-10.5472 17.92-2.6112 33.28-18.432 33.28-39.424v-26.3168a39.424 39.424 0 0 0-43.52-39.424c-48.64 2.56-138.24 7.8336-263.68 7.8336s-215.04-5.2224-263.68-10.496a39.424 39.424 0 0 0-43.52 39.424v26.3168c0 21.0432 12.8 36.864 33.28 39.424 40.96 5.3248 115.2 10.5472 222.72 10.5472v52.6336c-148.48-5.2736-332.8-31.5904-417.28-47.36a39.424 39.424 0 0 0-43.52 39.424V753.3056c0 26.3168 20.48 44.6976 43.52 39.424C138.240512 779.5712 358.400512 748.032 512.000512 748.032s373.76 31.5904 468.48 44.6976zM921.600512 679.5776c-110.08-15.7696-279.04-36.8128-409.6-36.8128s-299.52 21.0432-409.6 36.864v-468.224c110.08 15.7696 279.04 36.8128 409.6 36.8128s299.52-21.0432 409.6-36.864z m-276.48-94.72c30.72 7.936 64 2.6624 92.16-10.496 5.12 0 7.68-2.6112 12.8-5.2224 23.04-13.1584 40.96-34.2016 53.76-60.5184l-69.12-34.2016c-7.68 15.7696-17.92 26.3168-30.72 31.5904-5.12 2.6112-7.68 5.2224-12.8 5.2224-10.24 2.6624-20.48 2.6624-30.72 0-15.36-2.6112-28.16-13.1584-35.84-23.6544-7.68-13.1584-12.8-26.3168-12.8-42.0864 0-15.7696 5.12-31.5904 15.36-42.0864 10.24-13.1584 20.48-21.0432 35.84-23.6544 10.24-2.6624 20.48-2.6624 30.72 0 5.12 2.6112 10.24 2.6112 12.8 5.2224 12.8 7.8848 25.6 18.432 30.72 31.5904l69.12-34.2016c-12.8-23.6544-30.72-44.6976-53.76-60.5184-5.12-2.6112-7.68-5.2224-12.8-7.8848-28.16-13.1584-61.44-18.432-92.16-10.496A147.7632 147.7632 0 0 0 537.600512 445.44c0 31.5392 7.68 60.5184 28.16 86.784 20.48 26.3168 48.64 44.7488 79.36 52.6336zM307.200512 406.016c15.36 0 25.6-10.496 25.6-26.2656v-26.3168c0-15.7696-10.24-26.3168-25.6-26.3168H230.400512c-15.36 0-25.6 10.5472-25.6 26.3168v26.3168c0 15.7696 10.24 26.2656 25.6 26.2656zM409.600512 537.6c15.36 0 25.6-10.5472 25.6-26.368v-26.2656c0-15.8208-10.24-26.3168-25.6-26.3168H230.400512c-15.36 0-25.6 10.496-25.6 26.3168v26.2656C204.800512 527.0528 215.040512 537.6 230.400512 537.6z"  horiz-adv-x="1024" />
      
      <glyph glyph-name="module" unicode="&#59103;" d="M994.463507 111.568086l-100.075985 50.165967V565.109378a41.924415 41.924415 0 0 1-4.607078 14.589082 45.661268 45.661268 0 0 1-10.493901 11.824835l-4.095181 3.224955a8.190362 8.190362 0 0 1-3.224955 0l-315.380124 156.487103V850.133973a45.661268 45.661268 0 0 1-91.476105 0v-98.94981L150.65147 597.05179a8.190362 8.190362 0 0 1-3.224955 0l-0.870226-5.016597a45.661268 45.661268 0 0 1-10.545091-11.876025 41.924415 41.924415 0 0 1-4.555889-14.640272v-402.351529L27.284143 111.568086a45.661268 45.661268 0 1 1 40.644671-81.69886l103.761648 52.059988 318.605079-155.565687h7.320136a39.364927 39.364927 0 0 1 31.072185 0h7.268947l316.352729 155.565687 103.761648-52.059988a45.814837 45.814837 0 0 1 67.672865 43.511298 45.661268 45.661268 0 0 1-27.028194 38.187562h-2.25235zM510.822635 442.765847L265.367726 557.328534l245.454909 114.972206 245.506099-114.972206-245.506099-114.511497z m-292.088782 36.037592l246.376325-114.921015v-316.659869l-246.376325 113.538893V478.854629z m337.85243-432.963007v316.659868l246.376324 114.972205v-316.711057l-246.376324-114.921016z"  horiz-adv-x="1024" />
      
      <glyph glyph-name="equipment-phone" unicode="&#59099;" d="M859.524749-45.311841a138.487691 138.487691 0 0 0-29.84781-42.749435 140.893946 140.893946 0 0 0-99.32204-39.882407h-487.906726a140.586765 140.586765 0 0 0-129.16985 82.631842A126.046837 126.046837 0 0 0 102.424575 6.909025V760.015839c0 18.686879 3.583785 36.349819 10.853748 52.784033 7.218767 16.485411 17.202168 30.922945 29.847809 43.312601A140.893946 140.893946 0 0 0 242.448173 895.99488h487.906726a140.586765 140.586765 0 0 0 99.32204-39.933604c12.645641-12.287263 22.629042-26.775993 29.84781-43.261404 7.218767-16.485411 10.853749-34.097154 10.853748-52.784033v-753.106814c0-18.686879-3.583785-36.145031-10.853748-52.220866zM782.422175 706.054277H189.305762v-644.057357h593.116413V706.054277zM485.889567 30.510809c-15.205488 0-28.414295-5.631662-39.626423-16.843789-11.212127-11.263324-16.792592-25.086495-16.792592-41.571906 0-15.717457 5.631662-29.438234 16.792592-41.008739 11.263324-11.621703 24.420935-17.406956 39.626423-17.406956 15.922245 0 29.33584 5.785253 40.189588 17.406956 10.853749 11.570506 16.280623 25.291283 16.280623 40.957542 0 16.536608-5.426874 30.410975-16.280623 41.623103a53.654381 53.654381 0 0 1-40.189588 16.894986z m86.881187 771.025739a18.277303 18.277303 0 0 1-5.426875 14.079155 17.150971 17.150971 0 0 1-11.928884 5.119693H417.439274c-3.583785 0-7.423555-1.740696-11.365718-5.119693a17.406956 17.406956 0 0 1-5.990041-14.027958c0-5.990041 1.791892-10.700158 5.426874-14.079156 3.583785-3.3278 7.628342-5.017299 11.928885-5.017298h137.924524a17.150971 17.150971 0 0 1 11.928884 5.017298 18.277303 18.277303 0 0 1 5.426875 14.079156z"  horiz-adv-x="1024" />
      
      <glyph glyph-name="scale" unicode="&#59101;" d="M64 832h896v-407.36H552.448V-64H64V832z m373.376-786.432L437.76 526.72h421.44V726.912h-104.256V612.48h-48.576V726.912h-90.24V612.48h-48.64V726.912H473.536v-114.112h-49.088V726.848H321.152L164.864 727.04v-214.016h119.168v-53.632H164.864v-99.584h119.168v-53.696H164.864v-99.648h119.168v-53.632H164.864v-107.264h272.512z"  horiz-adv-x="1024" />
      
      <glyph glyph-name="equipment-pc" unicode="&#59089;" d="M783.616 58.624H240.64a41.6768 41.6768 0 0 1-41.1648-42.0864c0-23.2448 18.432-42.1376 41.1648-42.1376h542.976c22.7328 0 41.1648 18.944 41.1648 42.1376a41.7792 41.7792 0 0 1-41.1648 42.0864zM907.1104 793.6H117.0432C80.6912 793.6 51.2 763.392 51.2 726.1696v-539.3408c0-37.0688 29.3888-67.4304 65.8432-67.4304h789.9136c36.352 0 65.8432 30.1056 65.8432 67.4304V726.1696C972.8 763.392 943.4112 793.6 907.1104 793.6z m-104.1408-269.4656l-181.3504-185.7536a34.56 34.56 0 0 0-43.9296 0L424.0384 495.872 270.336 338.432a34.816 34.816 0 0 0-49.3056 8.0384 36.8128 36.8128 0 0 0 0 42.496L402.432 574.6176a33.5872 33.5872 0 0 0 43.2128 0l154.0608-157.696 154.0096 157.696a34.816 34.816 0 0 0 49.3568-8.0384 36.9664 36.9664 0 0 0-0.1536-42.496z"  horiz-adv-x="1024" />
      
      <glyph glyph-name="preview" unicode="&#59100;" d="M902.095238 166.912C865.816381 76.897524 780.775619 18.285714 686.518857 18.285714c-94.305524 0-179.297524 58.61181-215.576381 148.626286 35.84 90.307048 121.124571 149.113905 215.527619 148.577524 94.45181 0.487619 179.736381-58.270476 215.625143-148.577524z m-107.763809 202.069333a299.690667 299.690667 0 0 1-107.812572 20.821334c-124.050286 1.072762-236.007619-76.458667-282.428952-195.437715l-10.386286-27.452952 10.386286-27.89181a345.721905 345.721905 0 0 1 48.859428-83.577904H363.129905V551.204571a24.380952 24.380952 0 0 0 24.380952 24.380953h382.390857a24.380952 24.380952 0 0 0 24.380953-24.380953v-182.223238zM291.254857 551.253333v-471.381333a24.380952 24.380952 0 0 0-24.380952-24.380952H243.809524a24.380952 24.380952 0 0 0-24.380953 24.380952V551.204571a24.380952 24.380952 0 0 0 24.380953 24.380953h23.113143a24.380952 24.380952 0 0 0 24.380952-24.380953zM608.743619 213.333333c-16.091429-28.769524-16.091429-64.121905 0-92.891428 16.042667-28.769524 45.689905-46.421333 77.775238-46.421334 49.590857 0 89.819429 41.593905 89.819429 92.891429s-40.228571 92.842667-89.819429 92.842667c-32.085333 0-61.732571-17.700571-77.824-46.421334z m77.775238-9.264762c12.824381 0 24.722286-7.119238 31.110095-18.578285a38.229333 38.229333 0 0 0 0-37.156572 35.742476 35.742476 0 0 0-31.110095-18.578285 36.571429 36.571429 0 0 0-35.937524 37.156571c0 20.48 16.091429 37.10781 35.937524 37.156571z m107.76381 570.026667v-99.864381a24.380952 24.380952 0 0 0-24.380953-24.380952H243.809524a24.380952 24.380952 0 0 0-24.380953 24.380952V774.095238a24.380952 24.380952 0 0 0 24.380953 24.380952h526.140952a24.380952 24.380952 0 0 0 24.380953-24.380952z"  horiz-adv-x="1024" />
      
      <glyph glyph-name="templateSelection" unicode="&#59098;" d="M782.6432 793.6C860.4672 793.6 921.6 733.5424 921.6 657.0496v-546.0992C921.6 34.4576 860.4672-25.6 782.6432-25.6H241.3568C163.5328-25.6 102.4 34.4576 102.4 110.9504V657.0496C102.4 733.5424 163.5328 793.6 241.3568 793.6z m0-54.6304H241.3568c-44.4416 0-83.3536-38.1952-83.3536-81.92v-546.0992c0-43.7248 38.912-81.92 83.3536-81.92h541.2864c44.4416 0 83.3536 38.1952 83.3536 81.92V657.0496c0 43.7248-38.912 81.92-83.3536 81.92z m-244.736-320.8192V76.8H275.0976C232.96 76.8 204.8 104.0896 204.8 145.0496V418.1504h333.1072z m281.2928 0v-273.1008c0-40.96-28.16-68.2496-70.2976-68.2496H608.256V418.1504H819.2zM748.9024 691.2C791.04 691.2 819.2 663.9104 819.2 622.9504V486.4H204.8V622.9504C204.8 663.9104 232.96 691.2 275.0976 691.2z"  horiz-adv-x="1024" />
      
      <glyph glyph-name="self-adaptation3" unicode="&#59090;" d="M195.9936 793.6h632.0128C879.616 793.6 921.6 751.7184 921.6 700.0064v-632.0128C921.6 16.384 879.6672-25.6 828.0064-25.6H195.9936A93.6448 93.6448 0 0 0 102.4 67.9936V700.0064A93.5936 93.5936 0 0 0 195.9936 793.6z m-23.3984-702.1568a46.7968 46.7968 0 0 1 46.848-46.7968h585.1136a46.7968 46.7968 0 0 1 46.848 46.7456V676.608a46.848 46.848 0 0 1-46.848 46.7968H219.4432a46.8992 46.8992 0 0 1-46.848-46.848v-585.1136z m245.5552 178.3296l58.7776-58.7264V556.3904L419.7888 499.3536a35.1232 35.1232 0 0 0-49.664 49.664l108.8512 108.7488a34.3552 34.3552 0 0 0 6.5536 9.8816 34.7648 34.7648 0 0 0 26.4704 10.0864 32.6656 32.6656 0 0 0 33.024-19.8144l108.8512-108.8a35.1744 35.1744 0 0 0-49.664-49.7152l-57.1392 57.088v-345.344l58.7776 58.6752a35.1232 35.1232 0 0 0 49.664-49.6128l-118.6816-118.6816a35.072 35.072 0 0 0-49.664 0L368.4864 220.16a35.1232 35.1232 0 1 0 49.664 49.664v-0.1024z"  horiz-adv-x="1024" />
      
      <glyph glyph-name="secondaryDevelopment" unicode="&#59096;" d="M830.5664 793.6C885.248 793.6 921.6 757.1968 921.6 702.5664v-637.1328C921.6 16.896 879.104-25.6 830.5664-25.6H193.4336C144.896-25.6 102.4 16.896 102.4 65.4336V702.5664C102.4 751.104 144.896 793.6 193.4336 793.6z m-26.0096-585.1648H219.4432v-58.4704h585.1136V208.384z m-263.3216 468.1216l-87.7568-393.8304 87.7568-15.7696 87.808 393.8816-87.808 15.7184zM340.1728 618.0352l-109.568-114.8928a42.4448 42.4448 0 0 1 0-57.4976l109.568-120.1664 54.784 57.4976-84.6336 88.7808L394.9568 560.64l-54.784 57.4464z m343.6544 0l-54.784-57.4464 84.6336-88.832-84.6336-88.7808 54.784-57.4976 109.568 114.944a42.4448 42.4448 0 0 1 0 57.4464l-109.568 120.1664z"  horiz-adv-x="1024" />
      
      <glyph glyph-name="self-adaptation2" unicode="&#59097;" d="M102.4 67.9936V700.0064C102.4 751.616 144.2816 793.6 195.9936 793.6h632.0128C879.616 793.6 921.6 751.6672 921.6 700.0064v-632.0128C921.6 16.384 879.6672-25.6 828.0064-25.6H195.9936A93.5936 93.5936 0 0 0 102.4 67.9936z m702.1568-23.3984a46.7968 46.7968 0 0 1 46.7968 46.848V676.5568a46.7968 46.7968 0 0 1-46.7456 46.848H219.392a46.848 46.848 0 0 1-46.7968-46.848v-585.1136c0-25.856 20.992-46.848 46.848-46.848h585.1136z m-178.3296 245.5552l58.7264 58.7776H339.6096l57.0368-57.1392a35.1232 35.1232 0 0 0-49.664-49.664l-108.7488 108.8512a34.3552 34.3552 0 0 0-9.8816 6.5536 34.7648 34.7648 0 0 0-10.0864 26.4704 32.6656 32.6656 0 0 0 19.8144 33.024l108.8 108.8512a35.1744 35.1744 0 0 0 49.7152-49.664L339.5072 419.072h345.344L626.176 477.8496a35.1232 35.1232 0 0 0 49.6128 49.664l118.6816-118.6816a35.072 35.072 0 0 0 0-49.664L675.84 240.4864a35.1232 35.1232 0 1 0-49.664 49.664h0.1024z"  horiz-adv-x="1024" />
      
      <glyph glyph-name="styleSwitching" unicode="&#59095;" d="M405.6064-25.6h-64c-48.7424 0.0512-88.2176 38.656-88.2688 86.2208v273.408L405.6064-25.6V-25.6z m154.2144 0a88.064 88.064 0 0 0-81.3056 52.992L259.584 543.488A85.7088 85.7088 0 0 0 307.2 655.5648l325.3248 131.584a89.088 89.088 0 0 0 114.7904-46.4896l218.9312-516.1472a85.4528 85.4528 0 0 0-48.0768-112.128l-324.8128-131.4816c-10.6496-4.3008-22.016-6.4512-33.5872-6.4512l0.0512-0.0512zM430.4896 581.7856c-29.952 0-54.272-23.7056-54.272-52.992 0-29.2352 24.32-52.9408 54.272-52.9408 29.952 0 54.2208 23.7056 54.2208 52.9408 0 29.2864-24.2688 52.992-54.272 52.992z m-265.728-540.9792l-59.0848 24.1664a86.272 86.272 0 0 0-48.0768 112.4864l107.3152 252.672v-389.2736h-0.1024z"  horiz-adv-x="1024" />
      
      <glyph glyph-name="self-adaptation4" unicode="&#59094;" d="M102.4 67.9936V700.0064C102.4 751.616 144.2816 793.6 195.9936 793.6h632.0128C879.616 793.6 921.6 751.6672 921.6 700.0064v-632.0128C921.6 16.384 879.6672-25.6 828.0064-25.6H195.9936A93.5936 93.5936 0 0 0 102.4 67.9936z m702.1568-23.3984a46.7968 46.7968 0 0 1 46.7968 46.848V676.5568a46.7968 46.7968 0 0 1-46.7456 46.848H219.392a46.848 46.848 0 0 1-46.7968-46.848v-585.1136c0-25.856 20.992-46.848 46.848-46.848h585.1136z m-440.6272 324.608v-83.0464l244.224 244.1728-80.7424 0.0512a35.1232 35.1232 0 0 0 0 70.2464l153.856-0.0512a34.3552 34.3552 0 0 0 11.6736 2.304c9.8304 0 19.2512-4.1984 25.8048-11.5712a32.6656 32.6656 0 0 0 9.3696-37.376v-153.9072a35.1744 35.1744 0 0 0-70.2464 0V480.768l-244.224-244.224H496.64a35.1232 35.1232 0 1 0 0-70.2464H328.8576a35.072 35.072 0 0 0-35.072 35.1232v167.8336a35.1232 35.1232 0 1 0 70.144 0z"  horiz-adv-x="1024" />
      
      <glyph glyph-name="self-adaptation1" unicode="&#59093;" d="M172.544 332.8v-241.3568c0-25.856 20.992-46.848 46.8992-46.848H460.8V-25.6H195.9936A93.5936 93.5936 0 0 0 102.4 67.9936V332.8h70.144z m655.4624 460.8C879.616 793.6 921.6 751.6672 921.6 700.0064v-632.0128C921.6 16.384 879.6672-25.6 828.0064-25.6H614.4v70.1952h190.1568a46.7968 46.7968 0 0 1 46.7968 46.848V676.5568a46.7968 46.7968 0 0 1-46.7456 46.848H219.392a46.848 46.848 0 0 1-46.7968-46.848L172.544 486.4H102.4V700.0064C102.4 751.616 144.2816 793.6 195.9936 793.6h632.0128zM102.4 341.6064C102.4 393.216 144.2816 435.2 195.9936 435.2h273.6128C521.216 435.2 563.2 393.2672 563.2 341.6064v-273.6128C563.2 16.384 521.2672-25.6 469.6064-25.6H195.9936A93.5936 93.5936 0 0 0 102.4 67.9936v273.6128z m376.832-283.2896a46.7968 46.7968 0 0 1 13.7216 33.1264v226.7136a46.7968 46.7968 0 0 1-46.7456 46.848h-226.816a46.848 46.848 0 0 1-46.7968-46.848v-226.7136c0-25.856 20.992-46.848 46.848-46.848h226.7136a46.7968 46.7968 0 0 1 33.1264 13.7216z"  horiz-adv-x="1024" />
      
      <glyph glyph-name="outline" unicode="&#59092;" d="M210.2272 793.6a107.52 107.52 0 0 0 105.5744-84.8896 106.3936 106.3936 0 0 0-62.464-119.552v-158.208h86.272a21.504 21.504 0 0 0 21.5552-21.3504v-42.6496a21.504 21.504 0 0 0-21.5552-21.3504H253.3888v-197.3248c0-12.4416 2.6112-23.6544 6.656-31.5904l1.536-2.7648a25.5488 25.5488 0 0 1 1.4336-2.2016l0.6656-0.768h75.9296a21.504 21.504 0 0 0 21.5552-21.3504v-42.6496a21.504 21.504 0 0 0-21.5552-21.3504H259.5328c-55.1936 0-90.5216 54.9376-92.3648 117.5552l-0.0512 5.12V589.1584a106.3936 106.3936 0 0 0-62.464 119.552A107.5712 107.5712 0 0 0 210.2784 793.6z m672.5632-640c10.24 0 20.1728-4.096 27.4432-11.264 7.2704-7.168 11.3664-16.9472 11.3664-27.136v-51.2c0-21.1968-17.408-38.4-38.8096-38.4h-353.6896a38.6048 38.6048 0 0 0-38.8096 38.4v51.2c0 21.1968 17.408 38.4 38.8096 38.4h353.6896z m0 298.6496c10.24 0 20.1728-4.0448 27.4432-11.264 7.2704-7.168 11.3664-16.896 11.3664-27.136v-51.2c0-21.1968-17.408-38.4-38.8096-38.4h-353.6896a38.6048 38.6048 0 0 0-38.8096 38.4v51.2c0 21.1968 17.408 38.4 38.8096 38.4h353.6896z m0 298.7008c10.24 0 20.1728-4.096 27.4432-11.264 7.2704-7.168 11.3664-16.9472 11.3664-27.136v-51.2c0-21.1968-17.408-38.4-38.8096-38.4h-353.6896a38.6048 38.6048 0 0 0-38.8096 38.4v51.2c0 21.1968 17.408 38.4 38.8096 38.4h353.6896z"  horiz-adv-x="1024" />
      
      <glyph glyph-name="zoom" unicode="&#59091;" d="M876.0832 778.3936c23.0912-0.0512 42.496-17.2544 45.2096-39.9872L921.6 733.184v-677.632a45.312 45.312 0 0 0-40.2432-44.8512l-5.2736-0.3072h-307.0976a45.3632 45.3632 0 0 0-45.3632 42.496 45.2608 45.2608 0 0 0 40.0384 47.5136l5.3248 0.3072h261.5296V687.9744H193.3824v-261.0688a45.312 45.312 0 0 0-40.192-44.8512l-5.2736-0.3072a45.4144 45.4144 0 0 0-45.2608 39.936L102.4 426.9056V733.184c0 22.8864 17.3056 42.1376 40.192 44.8512l5.3248 0.3584H876.032z m-462.592-478.2592c30.3616 0 45.568-15.0528 45.568-45.2096v-188.4672c0-30.1568-15.2064-45.2096-45.568-45.2096H153.2928c-30.3616 0-45.568 15.0528-45.568 45.2096v188.4672c0 30.1568 15.2064 45.2096 45.568 45.2096h260.1984z m318.1568 327.2704h2.816c1.3312 0 2.6624-0.1024 3.9936-0.256l-1.792 0.1536 3.1744-0.3584a35.1232 35.1232 0 0 0 4.1984-0.768l1.1776-0.3584a44.9536 44.9536 0 0 0 33.4848-45.312v-203.7248a45.312 45.312 0 0 0-42.8544-45.056 45.4144 45.4144 0 0 0-47.872 39.7824l-0.3072 5.2736-0.0512 96-127.8976-127.7952a45.7728 45.7728 0 0 0-61.952-1.8944 44.9536 44.9536 0 0 0-6.3488 61.2352l3.7376 4.3008 128.512 128.4096H511.9488a45.4144 45.4144 0 0 0-45.2096 39.8848l-0.256 5.2736c0 22.8864 17.2544 42.1888 40.192 44.8512L512 627.3536h219.0848l0.512 0.0512z"  horiz-adv-x="1024" />
      
      <glyph glyph-name="self-adaptation41" unicode="&#59108;" d="M102.4 700.0064C102.4 751.616 144.2816 793.6 195.9936 793.6h632.0128C879.616 793.6 921.6 751.6672 921.6 700.0064v-632.0128C921.6 16.384 879.6672-25.6 828.0064-25.6H195.9936A93.5936 93.5936 0 0 0 102.4 67.9936V700.0064z m735.232-641.6896a46.7968 46.7968 0 0 1 13.7216 33.1264V676.5568a46.7968 46.7968 0 0 1-46.7456 46.848H219.392a46.848 46.848 0 0 1-46.7968-46.848v-585.1136c0-25.856 20.992-46.848 46.848-46.848h585.1136a46.7968 46.7968 0 0 1 33.1264 13.7216z m-152.6784 290.6112H339.6096l32.256-31.3344a35.1232 35.1232 0 0 0-49.7152-49.664l-83.968 83.0464a34.3552 34.3552 0 0 0-9.8304 6.5536 35.9936 35.9936 0 0 0-10.0864 26.4704c-1.28 14.1312 8.5504 24.832 19.8144 33.024l84.0704 80.896a35.1744 35.1744 0 0 0 49.664-49.664l-32.256-29.184h345.2928l-31.488 29.184a35.1232 35.1232 0 0 0 49.6128 49.664l91.4944-89.088a35.072 35.072 0 0 0 0-49.664l-91.4944-91.2384a35.1232 35.1232 0 1 0-49.664 49.664l31.6416 31.3344z m-139.4688 207.4624v-345.344l31.3344 32.256a35.1232 35.1232 0 1 0 49.6128-49.664l-82.9952-83.968a34.3552 34.3552 0 0 0-6.6048-9.8816 35.9936 35.9936 0 0 0-26.4704-10.0864c-14.1312-1.28-24.7808 8.6016-33.024 19.8144l-80.896 84.0704a35.1744 35.1744 0 0 0 49.664 49.7152l29.184-32.3072V556.3392l-29.184-31.5392a35.1232 35.1232 0 1 0-49.664 49.664l89.088 91.4944a35.072 35.072 0 0 0 49.664 0l91.2384-91.5456a35.1232 35.1232 0 0 0-49.664-49.6128l-31.2832 31.5904z"  horiz-adv-x="1024" />
      
      <glyph glyph-name="shangxiajuzhongduiqi" unicode="&#59118;" d="M1024 416v-64h-64V192a64 64 0 0 0-64-64h-256a64 64 0 0 0-64 64V352H448V64a64 64 0 0 0-64-64H128a64 64 0 0 0-64 64V352H0v64h64V704a64 64 0 0 0 64 64h256a64 64 0 0 0 64-64v-288h128V576a64 64 0 0 0 64 64h256a64 64 0 0 0 64-64v-160h64zM384 64V704H128v-640h256z m512 128V576h-256v-384h256z"  horiz-adv-x="1024" />
      
      <glyph glyph-name="diduiqi" unicode="&#59116;" d="M0-128v64h1024v-64z m64 576a64 64 0 0 0 64 64h256a64 64 0 0 0 64-64v-384a64 64 0 0 0-64-64H128a64 64 0 0 0-64 64V448z m64 0v-384h256V448H128z m448 256a64 64 0 0 0 64 64h256a64 64 0 0 0 64-64v-640a64 64 0 0 0-64-64h-256a64 64 0 0 0-64 64V704z m64 0v-640h256V704h-256z"  horiz-adv-x="1024" />
      
      <glyph glyph-name="chuizhifenbu" unicode="&#59115;" d="M0 832v-64h1024V832z m0-832v-64h1024v64z m192 576a64 64 0 0 1-64-64v-256a64 64 0 0 1 64-64h640a64 64 0 0 1 64 64V512a64 64 0 0 1-64 64H192z m0-64h640v-256H192V512z"  horiz-adv-x="1024" />
      
      <glyph glyph-name="dingduiqi" unicode="&#59117;" d="M1024 832v-64H0V832z m-64-576a64 64 0 0 0-64-64h-256a64 64 0 0 0-64 64V640a64 64 0 0 0 64 64h256a64 64 0 0 0 64-64v-384z m-64 0V640h-256v-384h256z m-448-256a64 64 0 0 0-64-64H128a64 64 0 0 0-64 64V640a64 64 0 0 0 64 64h256a64 64 0 0 0 64-64v-640z m-64 0V640H128v-640h256z"  horiz-adv-x="1024" />
      
      <glyph glyph-name="shangxiazuoyoujuzhongduiqi" unicode="&#59111;" d="M64 352h128V128a64 64 0 0 1 64-64h223.936l0.064-128h64l-0.064 128H768a64 64 0 0 1 64 64V352h128v64h-128V640a64 64 0 0 1-64 64H543.936L544 832h-64l-0.064-128H256a64 64 0 0 1-64-64v-224H64v-64zM576-64h320a64 64 0 0 1 64 64v256h-64v-256H576v-64zM576 768h320v-256h64V768a64 64 0 0 1-64 64H576v-64z m-32.064-352V640H768v-224H543.936z m0-288V352H768V128H543.936zM256 128V352h223.936V128H256z m0 288V640h223.936v-224H256zM64 512h64V768h320V832H128a64 64 0 0 1-64-64v-256z m0-512a64 64 0 0 1 64-64h320v64H128v256H64z"  horiz-adv-x="1024" />
      
      <glyph glyph-name="zuhe" unicode="&#59113;" d="M640 832a64 64 0 0 0 64-64v-192h192a64 64 0 0 0 64-64v-512a64 64 0 0 0-64-64H384a64 64 0 0 0-64 64v192H128a64 64 0 0 0-64 64V768a64 64 0 0 0 64 64h512z m256-320h-192v-256a64 64 0 0 0-64-64H384v-192h512V512z m-256 256H128v-512h192V512a64 64 0 0 0 64 64h256V768z m0-256H384v-256h256V512z"  horiz-adv-x="1024" />
      
      <glyph glyph-name="shuipingfenbu" unicode="&#59114;" d="M960 896h-64v-1024h64zM128 896H64v-1024h64z m576-192a64 64 0 0 1-64 64H384a64 64 0 0 1-64-64v-640a64 64 0 0 1 64-64h256a64 64 0 0 1 64 64V704z m-64 0v-640H384V704h256z"  horiz-adv-x="1024" />
      
      <glyph glyph-name="zuoduiqi" unicode="&#59112;" d="M0 896h64v-1024H0z m576-64a64 64 0 0 0 64-64v-256a64 64 0 0 0-64-64H192a64 64 0 0 0-64 64V768a64 64 0 0 0 64 64h384z m0-64H192v-256h384V768z m256-448a64 64 0 0 0 64-64v-256a64 64 0 0 0-64-64H192a64 64 0 0 0-64 64v256a64 64 0 0 0 64 64h640z m0-64H192v-256h640v256z"  horiz-adv-x="1024" />
      
      <glyph glyph-name="youduiqi" unicode="&#59110;" d="M1024 896h-64v-1024h64zM448 832a64 64 0 0 1-64-64v-256a64 64 0 0 1 64-64h384a64 64 0 0 1 64 64V768a64 64 0 0 1-64 64H448z m0-64h384v-256H448V768zM192 320a64 64 0 0 1-64-64v-256a64 64 0 0 1 64-64h640a64 64 0 0 1 64 64v256a64 64 0 0 1-64 64H192z m0-64h640v-256H192v256z"  horiz-adv-x="1024" />
      
      <glyph glyph-name="zuoyoujuzhongduiqi" unicode="&#59109;" d="M192-64a64 64 0 0 0-64 64v256a64 64 0 0 0 64 64h288V448H320a64 64 0 0 0-64 64V768a64 64 0 0 0 64 64h160V896h64v-64H704a64 64 0 0 0 64-64v-256a64 64 0 0 0-64-64H544v-128H832a64 64 0 0 0 64-64v-256a64 64 0 0 0-64-64H544v-64h-64v64H192z m640 320H192v-256h640v256z m-128 512H320v-256h384V768z"  horiz-adv-x="1024" />
      
    </font>
</defs>
</svg>
